<svg xmlns="http://www.w3.org/2000/svg" xmlns:xlink="http://www.w3.org/1999/xlink" width="427.72" height="628.525" viewBox="0 0 427.72 628.525">
  <defs>
    <clipPath id="clip-path">
      <rect id="Rectangle_39" data-name="Rectangle 39" width="427.717" height="628.525" fill="none"/>
    </clipPath>
  </defs>
  <g id="Artwork_4" data-name="Artwork 4" transform="translate(213.86 314.263)">
    <g id="Group_550" data-name="Group 550" transform="translate(-213.86 -314.263)">
      <text id="S_" data-name="S+" transform="translate(97.567 595.928)" fill="#1b4593" font-size="99" font-family="Montserrat-ExtraBoldItalic, Montserrat" font-weight="800" font-style="italic"><tspan x="0" y="0" letter-spacing="-0.007em">S</tspan><tspan y="0">+</tspan></text>
      <g id="Group_549" data-name="Group 549">
        <g id="Group_548" data-name="Group 548" clip-path="url(#clip-path)">
          <path id="Path_1053" data-name="Path 1053" d="M73.565,67.34A490.377,490.377,0,0,1,159.853.011a2.921,2.921,0,0,1,2.956,1.811Q216.794,82.132,271,162.338c1.659,1.443.146,3.262-1.312,4.074-18.2,12.325-36.461,24.539-54.629,36.864-1.263.666-2.443,1.992-4,1.6a20.266,20.266,0,0,1-4.094-5.267c-21.374-31.923-43.068-63.637-64.345-95.622a80.92,80.92,0,0,0-10.534,9.126A140.424,140.424,0,0,0,90.1,179.659a89.94,89.94,0,0,0,4.851,56.059,222.625,222.625,0,0,0,22.908,38.966c13.324,19.75,26.53,39.584,40.028,59.216-.319.569-.958,1.707-1.284,2.276-27.925-.139-55.823,0-83.762-.076-3.067.354-4.552-2.651-6-4.761a403.249,403.249,0,0,1-37.828-62.825A166.372,166.372,0,0,1,16.826,168.6,204.939,204.939,0,0,1,73.565,67.34" transform="translate(82.911 0.002)" fill="#1b4593"/>
          <path id="Path_1054" data-name="Path 1054" d="M109.546,66.438a112.947,112.947,0,0,1,26.968-46.669c2.616.437,3.72,2.935,5.073,4.886q69.827,104.939,139.759,209.815a7.717,7.717,0,0,1,1.235,5.059v75.081a40.462,40.462,0,0,1-10.784.638l-203.541-.007c-17.814-.132-35.656.291-53.45-.194l-.6-1.728q-.073-35.809,0-71.527c-.409-2.373,2.276-1.9,3.747-1.978H196.39a10.083,10.083,0,0,0-2.54-5.475q-29.688-43.96-59.341-87.961A226.8,226.8,0,0,1,114.5,113.726,71.88,71.88,0,0,1,109.546,66.438Z" transform="translate(84.147 117.422)" fill="#1b4593"/>
        </g>
      </g>
      <path id="Path_1055" data-name="Path 1055" d="M83.344,1.035v37H48.495V58.32H83.344V97.885h21.572V58.32h34.759V38.039H104.916v-37Z" transform="translate(288.046 6.149)" fill="#1b4593"/>
    </g>
  </g>
</svg>
