<svg id="Group_162688" data-name="Group 162688" xmlns="http://www.w3.org/2000/svg" width="621.016" height="261.175" viewBox="0 0 621.016 261.175">
  <path id="Path_20915" data-name="Path 20915" d="M36.9-93.129H10.543a3.372,3.372,0,0,0-2.46,1.054,3.372,3.372,0,0,0-1.054,2.46v86.1a3.372,3.372,0,0,0,1.054,2.46A3.372,3.372,0,0,0,10.543,0H36.9A43.667,43.667,0,0,0,49.727-1.933,34.266,34.266,0,0,0,61.061-7.819a29.183,29.183,0,0,0,7.995-9.84,30.107,30.107,0,0,0,2.987-13.794V-61.5a30.107,30.107,0,0,0-2.987-13.794,29.183,29.183,0,0,0-7.995-9.84,35.6,35.6,0,0,0-11.334-5.974A41.918,41.918,0,0,0,36.9-93.129ZM22.843-77.314H36.9a28.54,28.54,0,0,1,7.116.879,22.242,22.242,0,0,1,6.15,2.548,13.422,13.422,0,0,1,4.393,4.305,11.247,11.247,0,0,1,1.669,6.15V-29.52a10.812,10.812,0,0,1-1.669,6.062,13.758,13.758,0,0,1-4.393,4.217,22.28,22.28,0,0,1-6.15,2.548,28.54,28.54,0,0,1-7.116.879H22.843ZM107.01-93.129H98.224a3.372,3.372,0,0,0-2.46,1.054,3.372,3.372,0,0,0-1.054,2.46v7.907a3.372,3.372,0,0,0,1.054,2.46,3.372,3.372,0,0,0,2.46,1.054h8.786a3.372,3.372,0,0,0,2.46-1.054,3.372,3.372,0,0,0,1.054-2.46v-7.907a3.372,3.372,0,0,0-1.054-2.46A3.372,3.372,0,0,0,107.01-93.129Zm0,28.114H98.224a3.372,3.372,0,0,0-2.46,1.054A3.372,3.372,0,0,0,94.71-61.5V-3.514a3.372,3.372,0,0,0,1.054,2.46A3.372,3.372,0,0,0,98.224,0h8.786a3.372,3.372,0,0,0,2.46-1.054,3.372,3.372,0,0,0,1.054-2.46V-61.5a3.372,3.372,0,0,0-1.054-2.46A3.372,3.372,0,0,0,107.01-65.014Zm81,0H171.673a2.833,2.833,0,0,0-2.284,1.054,6.094,6.094,0,0,0-1.23,2.46L157.791-17.571,146.546-61.5a6.092,6.092,0,0,0-1.23-2.46,2.833,2.833,0,0,0-2.284-1.054H129.326l15.814,61.5a6.094,6.094,0,0,0,1.23,2.46A2.833,2.833,0,0,0,148.654,0h20.207a2.834,2.834,0,0,0,2.284-1.054,6.094,6.094,0,0,0,1.23-2.46l7.556-32.331,7.556,32.331a6.094,6.094,0,0,0,1.23,2.46A2.833,2.833,0,0,0,191,0h20.207a2.833,2.833,0,0,0,2.284-1.054,6.094,6.094,0,0,0,1.23-2.46l15.814-61.5H216.831a2.835,2.835,0,0,0-2.284,1.054,6.128,6.128,0,0,0-1.23,2.46L201.9-17.571,191.529-61.5a6.069,6.069,0,0,0-1.23-2.46A2.832,2.832,0,0,0,188.014-65.014Zm59.391,43.929v7.029a13.536,13.536,0,0,0,4.129,9.928A13.536,13.536,0,0,0,261.463,0h35.143a3.372,3.372,0,0,0,2.46-1.054,3.372,3.372,0,0,0,1.054-2.46v-35.67a33.872,33.872,0,0,0-1.933-12.3,20.386,20.386,0,0,0-5.271-7.907A20.037,20.037,0,0,0,285.1-63.7a33.147,33.147,0,0,0-9.4-1.318,52.82,52.82,0,0,0-14.5,2.021,101.868,101.868,0,0,0-13.794,5.008L250.92-45.51a60.274,60.274,0,0,1,10.016-3.426A43.776,43.776,0,0,1,271.83-50.43a16.559,16.559,0,0,1,9.049,2.2q3.426,2.2,3.426,7.819a77.886,77.886,0,0,0-16.869,1.581,40.209,40.209,0,0,0-11.509,4.217,17.414,17.414,0,0,0-6.5,6.15A14.591,14.591,0,0,0,247.406-21.086Zm36.9,4.393H263.22v-2.636a5.672,5.672,0,0,1,2.284-4.744,15.635,15.635,0,0,1,5.623-2.636,38.157,38.157,0,0,1,6.941-1.142q3.6-.264,6.238-.264Zm54.3-48.321H326.3a3.372,3.372,0,0,0-2.46,1.054,3.372,3.372,0,0,0-1.054,2.46V-3.514a3.372,3.372,0,0,0,1.054,2.46A3.372,3.372,0,0,0,326.3,0h8.786a3.372,3.372,0,0,0,2.46-1.054,3.372,3.372,0,0,0,1.054-2.46v-43.05a25.448,25.448,0,0,1,6.15-2.372,29.024,29.024,0,0,1,7.38-.966,14.52,14.52,0,0,1,7.819,2.021q3.251,2.021,3.251,7.116V-3.514a3.372,3.372,0,0,0,1.054,2.46A3.372,3.372,0,0,0,366.716,0H375.5a3.372,3.372,0,0,0,2.46-1.054,3.372,3.372,0,0,0,1.054-2.46V-40.941a37.436,37.436,0,0,0-1.494-11.334,20.9,20.9,0,0,0-3.954-7.468,14.106,14.106,0,0,0-5.8-4.041,20.168,20.168,0,0,0-7.029-1.23,32.094,32.094,0,0,0-11.421,2.2A46.976,46.976,0,0,0,338.6-57.107Z" transform="translate(242 176)" fill="#324b96"/>
  <g id="Group_162687" data-name="Group 162687">
    <g id="Group_162675" data-name="Group 162675" transform="translate(117.228 0)">
      <path id="Path_20893" data-name="Path 20893" d="M91.839,60.223c9.16-4.825,20.8,4.759,18.19,14.67-1.6,9.063-13.333,13.692-20.668,8.215C81.081,77.794,82.614,63.645,91.839,60.223Z" transform="translate(-83.95 -58.935)" fill="#0aaed7"/>
    </g>
    <g id="Group_162676" data-name="Group 162676" transform="translate(34.19 34.328)">
      <path id="Path_20894" data-name="Path 20894" d="M64.418,71.806C72.893,65.319,86.553,73.436,84.727,84c.163,11.051-15.648,15.843-22.461,7.954C56.463,86.509,57.441,75.849,64.418,71.806Z" transform="translate(-58.478 -69.412)" fill="#1da0dc"/>
      <path id="Path_20895" data-name="Path 20895" d="M115.566,71.436c8.769-5.933,22.037,2.445,19.951,12.942-.717,9.389-12.453,14.7-20.081,9.649C107.318,89.529,107.449,75.837,115.566,71.436Z" transform="translate(56.63 -69.465)" fill="#1da0dc"/>
    </g>
    <g id="Group_162677" data-name="Group 162677" transform="translate(110.715 35.153)">
      <path id="Path_20896" data-name="Path 20896" d="M93.029,71.777c12.453-6.813,29.568,4.3,28.3,18.419.424,13.627-15.778,24.058-27.905,17.571C78.228,102.323,78.163,77.612,93.029,71.777Z" transform="translate(-81.952 -69.718)" fill="#219ddd"/>
    </g>
    <g id="Group_162678" data-name="Group 162678" transform="translate(57.209 57.259)">
      <path id="Path_20897" data-name="Path 20897" d="M74.866,79.437c11.573-7.628,29.176.522,30.154,14.572,2.738,15.191-15.387,27.775-28.72,20.277C62.673,108.092,61.761,86.707,74.866,79.437Z" transform="translate(-65.539 -76.47)" fill="#2f94e1"/>
      <path id="Path_20898" data-name="Path 20898" d="M108.384,79.043c12.812-7.759,31.165,3.325,29.437,18.484.228,14.637-18.321,24.026-30.22,15.941C94.855,106.361,95.246,85.531,108.384,79.043Z" transform="translate(8.455 -76.5)" fill="#2f94e1"/>
    </g>
    <g id="Group_162682" data-name="Group 162682" transform="translate(0 110.68)">
      <path id="Path_20907" data-name="Path 20907" d="M70.656,94.559c12.323-5.8,28.687,4.27,27.351,18.256,1.467,15.028-17.245,25.036-29.568,17.18C54.552,122.986,55.889,99.775,70.656,94.559Z" transform="translate(-23.648 -92.887)" fill="#4f7eea"/>
      <path id="Path_20908" data-name="Path 20908" d="M55.847,96.182c9.16-4.727,20.7,4.857,18.093,14.735-1.63,8.932-13.3,13.626-20.538,7.954C45.154,113.557,46.621,99.6,55.847,96.182Z" transform="translate(-47.99 -88.25)" fill="#4f7eea"/>
    </g>
    <g id="Group_162683" data-name="Group 162683" transform="translate(57.117 163.891)">
      <path id="Path_20909" data-name="Path 20909" d="M78.515,110.547c14.018-5.868,30.513,8.606,26.112,23.243-2.282,14.93-23.308,20.57-33.316,9.682C60.911,133.986,65.214,114.85,78.515,110.547Z" transform="translate(-65.511 -109.21)" fill="#6e68f2"/>
      <path id="Path_20910" data-name="Path 20910" d="M112.073,110.289c14.083-5.216,30.187,9.649,25.134,24.123-2.869,15.159-24.938,19.886-34.229,7.856C93.687,132.261,98.805,113.908,112.073,110.289Z" transform="translate(8.476 -109.18)" fill="#6e68f2"/>
    </g>
    <g id="Group_162684" data-name="Group 162684" transform="translate(110.71 186.069)">
      <path id="Path_20911" data-name="Path 20911" d="M93.456,117.96c12.16-6.422,28.3,3.977,27.872,17.571,1.239,14.181-15.908,25.264-28.361,18.386C78.134,148.049,78.264,123.338,93.456,117.96Z" transform="translate(-81.951 -116.013)" fill="#7b5ef6"/>
    </g>
    <g id="Group_162685" data-name="Group 162685" transform="translate(34.224 200.409)">
      <path id="Path_20912" data-name="Path 20912" d="M64.557,122.339c7.5-4.857,20.049-.065,20.081,9.682,2.119,10.627-11.605,19.005-20.212,12.518C56.31,139.91,56.668,127.033,64.557,122.339Z" transform="translate(-58.488 -120.388)" fill="#7f5cf7"/>
      <path id="Path_20913" data-name="Path 20913" d="M115.326,122.395c6.618-4.466,17.571-1.076,19.462,7.041,4.336,9.649-6.911,20.668-16.56,16.658C107.893,143.551,106.3,127.48,115.326,122.395Z" transform="translate(56.608 -120.412)" fill="#7f5cf7"/>
    </g>
    <g id="Group_162686" data-name="Group 162686" transform="translate(117.23 234.631)">
      <path id="Path_20914" data-name="Path 20914" d="M91.576,131.955c8.476-3.716,18.94,2.966,18.777,12.322.391,10.2-12.746,17.115-20.831,10.693C81.21,149.689,82.448,135.7,91.576,131.955Z" transform="translate(-83.951 -130.909)" fill="#944efd"/>
    </g>
  </g>
</svg>
