<?xml version="1.0" encoding="utf-8"?>
<svg id="Group_162553" data-name="Group 162553" width="170.441" height="50.87" viewBox="0 0 170.441 50.87" xmlns="http://www.w3.org/2000/svg">
  <g id="Group_161944" data-name="Group 161944" transform="matrix(1, 0, 0, 1, 60.815087, -0.190735)">
    <path id="Path_20454" data-name="Path 20454" d="M60.493,12.957a16.768,16.768,0,0,0-.148-3.1,11.97,11.97,0,0,0-4.017-7.031c-.127-.094-.252-.19-.375-.283a11.817,11.817,0,0,0-5.9-2.464,20.643,20.643,0,0,0-2.6-.076q-7.507,0-15.013,0a20.047,20.047,0,0,0-5.393.374,11.836,11.836,0,0,0-8.8,10.231,12.148,12.148,0,0,1,.1,1.214c-.011,2.1-.008,4.207-.011,6.31a5.606,5.606,0,0,1-.149,2.047l-.021.065c3.82-.052,7.641-.018,11.462-.017q0-4.041,0-8.081a1.032,1.032,0,0,1,.229-.768,1.227,1.227,0,0,1,.61-.154c6.113.006,12.226.019,18.337-.011.017.045.049.135.064.18a1.518,1.518,0,0,1,.175.744c-.018,6.078.015,12.155-.016,18.231l-.254.272c-2.871.029-5.743.008-8.615.01-.024,3.8.008,7.592-.064,11.387l.073-.023a6.025,6.025,0,0,1,2.068-.151c2.065,0,4.13.011,6.194,0a6.945,6.945,0,0,1,1.226.115,3.665,3.665,0,0,0,.65-.044,11.977,11.977,0,0,0,5.156-2.052,11.828,11.828,0,0,0,4.876-7.658,18.846,18.846,0,0,0,.153-3.393Z" transform="translate(-9.279 0)" fill="#1fc2d1"/>
    <path id="Path_20455" data-name="Path 20455" d="M20.352,53.715c0-2.942-.011-5.883.008-8.826-3.826,0-7.654.013-11.48-.006,0,2.938-.013,5.877.01,8.814-2.961.063-5.923.023-8.883.021C0,57.513.015,61.31,0,65.107c2.958,0,5.916.007,8.873,0,.018,2.946,0,5.891.013,8.837,3.822-.015,7.645,0,11.467,0,.013-2.944-.036-5.891.024-8.835,2.96.024,5.919-.006,8.88.017-.023-3.8,0-7.6-.016-11.4Q24.8,53.75,20.352,53.715Z" transform="translate(0 -23.069)" fill="#15b0bd"/>
  </g>
</svg>